<?xml version="1.0" encoding="utf-8"?>
<!-- Generator: Adobe Illustrator 17.1.0, SVG Export Plug-In . SVG Version: 6.00 Build 0)  -->
<!DOCTYPE svg PUBLIC "-//W3C//DTD SVG 1.1//EN" "http://www.w3.org/Graphics/SVG/1.1/DTD/svg11.dtd">
<svg version="1.1" id="Layer_1" xmlns="http://www.w3.org/2000/svg" xmlns:xlink="http://www.w3.org/1999/xlink" x="0px" y="0px"
	 viewBox="0 0 324 224" enable-background="new 0 0 324 224" xml:space="preserve">
<g id="Layer_3">
	<g id="Laag_2">
		<path fill="#1F7350" d="M295.1,159.1v-7c-3.7-0.4-3.7-6.2,0-6.6v-6.4c-3.7-0.4-3.7-6.2,0-6.6v-6.7c-10.2-1.2-18.4-10-18.4-20.5
			s8.2-19.4,18.4-20.5v-5.5c-3.7-0.4-3.7-6.2,0-6.6v-6.7c-4.1-0.1-4.1-6.5,0-6.7V54c0,0-0.1,0-0.1,0c-4.3,0-4.3-6.7,0-6.7
			c0,0,0.1,0,0.1,0v-1.9H28.9v4.8c0,0,0.1,0,0.1,0c4.3,0,4.3,6.7,0,6.7c0,0-0.1,0-0.1,0v4.9c4.1,0.1,4.1,6.5,0,6.7v5.8
			c3.7,0.4,3.7,6.2,0,6.6V88c9.5,1.8,16.9,10.3,16.9,20.3s-7.4,18.5-16.9,20.3v6.9c3.7,0.4,3.7,6.2,0,6.6v5.8c4.1,0.1,4.1,6.5,0,6.7
			v6.1c3.7,0.4,3.7,6.2,0,6.6v11.3h266.2v-12.8C291.4,165.3,291.4,159.6,295.1,159.1z"/>
		<g>
			<path fill="#BBBBBB" d="M78.8,77.1c0,0,0-0.1,0-0.1s0,0,0-0.1c0-0.1,0-0.3,0.1-0.4c0.1-0.1,0.2-0.1,0.3-0.1c0.1,0,0.2,0,0.3,0.1
				s0.1,0.2,0.2,0.4l0.6,2c0,0,0,0.1,0,0.1s0,0.1,0,0.1c0,0.1,0,0.2-0.1,0.2c-0.1,0-0.2,0.1-0.3,0.1h-7.6v1.1c0,0.4,0,0.7-0.1,0.8
				c0,0.1-0.2,0.2-0.4,0.2c-0.2,0-0.3,0-0.4-0.1s-0.1-0.2-0.1-0.4v-4.1c0-0.2,0-0.3,0.1-0.4c0.1-0.1,0.2-0.1,0.4-0.1
				c0.2,0,0.3,0,0.4,0.2c0.1,0.1,0.1,0.4,0.1,0.8v1.2h6.8L78.8,77.1z"/>
			<path fill="#BBBBBB" d="M75.6,88.8c-0.3-0.3-0.6-0.5-0.7-0.8c-0.2-0.3-0.2-0.6-0.2-1c0-0.7,0.3-1.3,0.8-1.9
				c0.6-0.5,1.2-0.8,2-0.8c0.8,0,1.6,0.3,2.1,0.8s0.8,1.1,0.8,1.9c0,0.9-0.4,1.6-1.1,2.2s-1.7,0.8-2.9,0.8c-1.6,0-2.8-0.4-3.8-1.2
				c-0.9-0.8-1.4-1.9-1.4-3.2c0-0.4,0-0.7,0.1-0.8c0-0.1,0.2-0.2,0.4-0.2c0.3,0,0.4,0.3,0.4,0.8c0,0.4,0,0.7,0.1,0.9
				c0.1,0.7,0.5,1.3,1.1,1.8C73.8,88.4,74.6,88.7,75.6,88.8z M77.4,88.7c0.6,0,1-0.1,1.4-0.4c0.4-0.3,0.5-0.7,0.5-1.2
				s-0.2-0.8-0.5-1.1c-0.4-0.3-0.8-0.4-1.3-0.4c-0.6,0-1,0.1-1.4,0.4c-0.4,0.3-0.5,0.7-0.5,1.1c0,0.4,0.2,0.8,0.5,1.1
				C76.5,88.5,76.9,88.7,77.4,88.7z"/>
			<path fill="#BBBBBB" d="M71.1,95.8c0-0.9,0.4-1.6,1.2-2.1s2-0.8,3.4-0.8s2.5,0.3,3.4,0.8c0.8,0.5,1.2,1.2,1.2,2.1
				s-0.4,1.6-1.2,2.1c-0.8,0.5-2,0.8-3.4,0.8s-2.5-0.3-3.4-0.8C71.6,97.3,71.1,96.6,71.1,95.8z M79.3,95.8c0-0.5-0.3-0.9-0.9-1.2
				c-0.6-0.3-1.5-0.4-2.7-0.4c-1.2,0-2,0.1-2.7,0.4s-0.9,0.7-0.9,1.2s0.3,0.9,0.9,1.2c0.6,0.3,1.5,0.4,2.7,0.4c1.2,0,2-0.1,2.7-0.4
				C79,96.7,79.3,96.3,79.3,95.8z"/>
			<path fill="#BBBBBB" d="M75.6,105.9c-0.3-0.3-0.6-0.5-0.7-0.8c-0.2-0.3-0.2-0.6-0.2-1c0-0.7,0.3-1.3,0.8-1.9
				c0.6-0.5,1.2-0.8,2-0.8c0.8,0,1.6,0.3,2.1,0.8s0.8,1.1,0.8,1.9c0,0.9-0.4,1.6-1.1,2.2s-1.7,0.8-2.9,0.8c-1.6,0-2.8-0.4-3.8-1.2
				c-0.9-0.8-1.4-1.9-1.4-3.2c0-0.4,0-0.7,0.1-0.8c0-0.1,0.2-0.2,0.4-0.2c0.3,0,0.4,0.3,0.4,0.8c0,0.4,0,0.7,0.1,0.9
				c0.1,0.7,0.5,1.3,1.1,1.8C73.8,105.5,74.6,105.7,75.6,105.9z M77.4,105.7c0.6,0,1-0.1,1.4-0.4c0.4-0.3,0.5-0.7,0.5-1.2
				s-0.2-0.8-0.5-1.1c-0.4-0.3-0.8-0.4-1.3-0.4c-0.6,0-1,0.1-1.4,0.4s-0.5,0.7-0.5,1.1s0.2,0.8,0.5,1.1
				C76.5,105.6,76.9,105.7,77.4,105.7z"/>
			<path fill="#BBBBBB" d="M71.4,110.4c0-0.3,0-0.4,0.1-0.5c0.1-0.1,0.3-0.2,0.4-0.2c0.3,0,0.8,0.4,1.7,1.3l0.2,0.2
				c0.1,0.1,0.3,0.3,0.5,0.6c1.5,1.6,2.6,2.4,3.3,2.4c0.5,0,0.9-0.1,1.2-0.4c0.3-0.3,0.4-0.7,0.4-1.1c0-0.3,0-0.6-0.2-0.8
				s-0.3-0.5-0.5-0.6c0,0-0.1-0.1-0.2-0.1c-0.3-0.2-0.4-0.4-0.4-0.6c0-0.2,0-0.3,0.1-0.4c0.1-0.1,0.3-0.1,0.6-0.1c0.2,0,0.3,0,0.4,0
				s0.2,0.1,0.3,0.2c0.3,0.3,0.5,0.7,0.7,1.1c0.2,0.4,0.3,0.9,0.3,1.3c0,0.8-0.3,1.4-0.8,1.9c-0.5,0.5-1.1,0.8-1.8,0.8
				c-0.9,0-2.1-0.8-3.6-2.4c-0.4-0.4-0.7-0.7-0.9-0.9l-0.8-0.8v3.1c0.2,0,0.4,0.1,0.4,0.2c0.1,0.1,0.2,0.2,0.2,0.4s0,0.3-0.1,0.4
				c-0.1,0.1-0.2,0.1-0.4,0.1c0,0,0,0-0.1,0c0,0,0,0-0.1,0l-0.5,0c-0.1,0-0.3,0-0.4-0.1s-0.1-0.2-0.1-0.3L71.4,110.4L71.4,110.4
				L71.4,110.4L71.4,110.4z"/>
			<path fill="#BBBBBB" d="M71.1,121.3c0-0.9,0.4-1.6,1.2-2.1s2-0.8,3.4-0.8s2.5,0.3,3.4,0.8c0.8,0.5,1.2,1.2,1.2,2.1
				s-0.4,1.6-1.2,2.1c-0.8,0.5-2,0.8-3.4,0.8s-2.5-0.3-3.4-0.8C71.6,122.9,71.1,122.2,71.1,121.3z M79.3,121.3
				c0-0.5-0.3-0.9-0.9-1.2c-0.6-0.3-1.5-0.4-2.7-0.4c-1.2,0-2,0.1-2.7,0.4s-0.9,0.7-0.9,1.2s0.3,0.9,0.9,1.2
				c0.6,0.3,1.5,0.4,2.7,0.4c1.2,0,2-0.1,2.7-0.4C79,122.3,79.3,121.9,79.3,121.3z"/>
			<path fill="#BBBBBB" d="M78.8,128.2c0,0,0-0.1,0-0.1s0,0,0-0.1c0-0.1,0-0.3,0.1-0.4c0.1-0.1,0.2-0.1,0.3-0.1c0.1,0,0.2,0,0.3,0.1
				s0.1,0.2,0.2,0.4l0.6,2c0,0,0,0.1,0,0.1s0,0.1,0,0.1c0,0.1,0,0.2-0.1,0.2c-0.1,0-0.2,0.1-0.3,0.1h-7.6v1.1c0,0.4,0,0.7-0.1,0.8
				c0,0.1-0.2,0.2-0.4,0.2c-0.2,0-0.3,0-0.4-0.1c0-0.1-0.1-0.2-0.1-0.4V128c0-0.2,0-0.3,0.1-0.4c0.1-0.1,0.2-0.1,0.4-0.1
				c0.2,0,0.3,0,0.4,0.2c0.1,0.1,0.1,0.4,0.1,0.8v1.2h6.8L78.8,128.2z"/>
			<path fill="#BBBBBB" d="M78.8,136.7c0,0,0-0.1,0-0.1s0,0,0-0.1c0-0.1,0-0.3,0.1-0.4c0.1-0.1,0.2-0.1,0.3-0.1c0.1,0,0.2,0,0.3,0.1
				s0.1,0.2,0.2,0.4l0.6,2c0,0,0,0.1,0,0.1s0,0.1,0,0.1c0,0.1,0,0.2-0.1,0.2c-0.1,0-0.2,0.1-0.3,0.1h-7.6v1.1c0,0.4,0,0.7-0.1,0.8
				c0,0.1-0.2,0.2-0.4,0.2c-0.2,0-0.3,0-0.4-0.1s-0.1-0.2-0.1-0.4v-4.1c0-0.2,0-0.3,0.1-0.4c0.1-0.1,0.2-0.1,0.4-0.1
				c0.2,0,0.3,0,0.4,0.2c0.1,0.1,0.1,0.4,0.1,0.8v1.2h6.8L78.8,136.7z"/>
		</g>
		<g>
			<path fill="#BBBBBB" d="M245.3,140c0,0,0,0.1,0,0.1s0,0,0,0.1c0,0.1,0,0.3-0.1,0.4s-0.2,0.1-0.3,0.1c-0.1,0-0.2,0-0.3-0.1
				s-0.1-0.2-0.2-0.4l-0.6-2c0,0,0-0.1,0-0.1s0-0.1,0-0.1c0-0.1,0-0.2,0.1-0.2s0.2-0.1,0.3-0.1h7.5v-1.1c0-0.4,0-0.7,0.1-0.8
				c0.1-0.1,0.2-0.2,0.4-0.2c0.2,0,0.3,0,0.4,0.1s0.1,0.2,0.1,0.4v4.1c0,0.2,0,0.3-0.1,0.4s-0.2,0.1-0.4,0.1c-0.2,0-0.3,0-0.4-0.2
				c-0.1-0.1-0.1-0.4-0.1-0.8v-1.2h-6.8L245.3,140z"/>
			<path fill="#BBBBBB" d="M248.6,128.3c0.3,0.3,0.6,0.5,0.7,0.8c0.2,0.3,0.2,0.6,0.2,1c0,0.7-0.3,1.3-0.8,1.9
				c-0.5,0.5-1.2,0.8-2,0.8c-0.8,0-1.6-0.3-2.1-0.8s-0.8-1.1-0.8-1.9c0-0.9,0.4-1.6,1.1-2.2c0.7-0.6,1.7-0.8,2.9-0.8
				c1.6,0,2.8,0.4,3.8,1.2c0.9,0.8,1.4,1.9,1.4,3.2c0,0.4,0,0.7-0.1,0.8c0,0.1-0.2,0.2-0.4,0.2c-0.3,0-0.4-0.3-0.4-0.8
				c0-0.4,0-0.7-0.1-0.9c-0.1-0.7-0.5-1.3-1.1-1.8C250.3,128.7,249.5,128.4,248.6,128.3z M246.7,128.4c-0.6,0-1,0.1-1.4,0.4
				c-0.4,0.3-0.5,0.7-0.5,1.2s0.2,0.8,0.5,1.1c0.4,0.3,0.8,0.4,1.3,0.4c0.6,0,1-0.1,1.4-0.4s0.5-0.7,0.5-1.1s-0.2-0.8-0.5-1.1
				C247.7,128.6,247.2,128.4,246.7,128.4z"/>
			<path fill="#BBBBBB" d="M253,121.4c0,0.9-0.4,1.6-1.2,2.1c-0.8,0.5-2,0.8-3.4,0.8s-2.5-0.3-3.4-0.8s-1.2-1.2-1.2-2.1
				s0.4-1.6,1.2-2.1s2-0.8,3.4-0.8s2.5,0.3,3.4,0.8C252.6,119.8,253,120.5,253,121.4z M244.8,121.4c0,0.5,0.3,0.9,0.9,1.2
				c0.6,0.3,1.5,0.4,2.7,0.4s2-0.1,2.7-0.4s0.9-0.7,0.9-1.2s-0.3-0.9-0.9-1.2c-0.6-0.3-1.5-0.4-2.7-0.4s-2,0.1-2.7,0.4
				C245.1,120.4,244.8,120.8,244.8,121.4z"/>
			<path fill="#BBBBBB" d="M248.3,114.5c-0.3-0.3-0.6-0.5-0.7-0.8c-0.2-0.3-0.2-0.6-0.2-1c0-0.7,0.3-1.3,0.8-1.9
				c0.5-0.5,1.2-0.8,2-0.8c0.8,0,1.6,0.3,2.1,0.8s0.8,1.1,0.8,1.9c0,0.9-0.4,1.6-1.1,2.2s-1.7,0.8-2.9,0.8c-1.6,0-2.8-0.4-3.8-1.2
				c-1-0.8-1.4-1.9-1.4-3.2c0-0.4,0-0.8,0.1-0.9c0-0.1,0.2-0.2,0.4-0.2c0.3,0,0.4,0.3,0.4,0.8c0,0.4,0,0.7,0.1,0.9
				c0.1,0.7,0.5,1.3,1.1,1.8S247.3,114.4,248.3,114.5z M250.1,114.3c0.6,0,1-0.1,1.4-0.4c0.4-0.3,0.5-0.7,0.5-1.2
				c0-0.4-0.2-0.8-0.5-1.1c-0.4-0.3-0.8-0.4-1.3-0.4c-0.6,0-1,0.1-1.4,0.4c-0.4,0.3-0.5,0.7-0.5,1.2c0,0.4,0.2,0.8,0.5,1.1
				C249.1,114.2,249.5,114.3,250.1,114.3z"/>
			<path fill="#BBBBBB" d="M252.8,106.7c0,0.3,0,0.4-0.1,0.5c-0.1,0.1-0.3,0.2-0.4,0.2c-0.3,0-0.8-0.4-1.7-1.3l-0.2-0.2
				c-0.1-0.1-0.3-0.3-0.5-0.6c-1.5-1.6-2.6-2.4-3.3-2.4c-0.5,0-0.9,0.1-1.2,0.4c-0.3,0.3-0.4,0.7-0.4,1.1c0,0.3,0,0.6,0.2,0.8
				s0.3,0.5,0.5,0.6c0,0,0.1,0.1,0.2,0.1c0.3,0.2,0.4,0.4,0.4,0.6c0,0.2,0,0.3-0.1,0.4c-0.1,0.1-0.3,0.1-0.6,0.1c-0.2,0-0.3,0-0.4,0
				c-0.1,0-0.2-0.1-0.3-0.2c-0.3-0.3-0.5-0.7-0.7-1.1c-0.2-0.4-0.3-0.9-0.3-1.3c0-0.8,0.3-1.4,0.8-1.9c0.5-0.5,1.1-0.8,1.8-0.8
				c0.9,0,2.1,0.8,3.6,2.4c0.4,0.4,0.7,0.7,0.9,0.9l0.8,0.8v-3.2c-0.2,0-0.4-0.1-0.4-0.2c-0.1-0.1-0.2-0.2-0.2-0.4s0-0.3,0.1-0.4
				c0.1-0.1,0.2-0.1,0.4-0.1c0,0,0,0,0.1,0s0,0,0.1,0l0.5,0c0.1,0,0.3,0,0.4,0.1c0.1,0.1,0.1,0.2,0.1,0.3L252.8,106.7L252.8,106.7z"
				/>
			<path fill="#BBBBBB" d="M253,95.8c0,0.9-0.4,1.6-1.2,2.1c-0.8,0.5-2,0.8-3.4,0.8s-2.5-0.3-3.4-0.8s-1.2-1.2-1.2-2.1
				s0.4-1.6,1.2-2.1s2-0.8,3.4-0.8s2.5,0.3,3.4,0.8C252.6,94.2,253,94.9,253,95.8z M244.8,95.8c0,0.5,0.3,0.9,0.9,1.2
				c0.6,0.3,1.5,0.4,2.7,0.4s2-0.1,2.7-0.4s0.9-0.7,0.9-1.2s-0.3-0.9-0.9-1.2c-0.6-0.3-1.5-0.4-2.7-0.4s-2,0.1-2.7,0.4
				C245.1,94.8,244.8,95.2,244.8,95.8z"/>
			<path fill="#BBBBBB" d="M245.3,88.9c0,0,0,0.1,0,0.1s0,0,0,0.1c0,0.1,0,0.3-0.1,0.4s-0.2,0.1-0.3,0.1c-0.1,0-0.2,0-0.3-0.1
				s-0.1-0.2-0.2-0.4l-0.6-2c0,0,0-0.1,0-0.1s0-0.1,0-0.1c0-0.1,0-0.2,0.1-0.2s0.2-0.1,0.3-0.1h7.5v-1.1c0-0.4,0-0.7,0.1-0.8
				c0.1-0.1,0.2-0.2,0.4-0.2c0.2,0,0.3,0,0.4,0.1s0.1,0.2,0.1,0.4v4.1c0,0.2,0,0.3-0.1,0.4s-0.2,0.1-0.4,0.1c-0.2,0-0.3,0-0.4-0.2
				c-0.1-0.1-0.1-0.4-0.1-0.8v-1.1h-6.8L245.3,88.9z"/>
			<path fill="#BBBBBB" d="M252.8,78.9c0,0.2,0,0.4-0.1,0.4c-0.1,0.1-0.2,0.1-0.4,0.1s-0.3,0-0.4-0.1c-0.1-0.1-0.1-0.2-0.1-0.4v-0.8
				h-1.2v3.2c0,0.1,0,0.2-0.1,0.3c-0.1,0-0.2,0.1-0.3,0.1h-0.5c-0.2,0-0.4-0.1-0.6-0.2c0,0-0.1,0-0.1,0l-5-2.9
				c-0.1,0-0.2-0.1-0.2-0.2s0-0.1,0-0.2c0,0,0-0.1,0-0.1v0l0.1-0.7c0,0,0-0.1,0.1-0.2s0.1,0,0.3,0h5.3v-0.4c0-0.1,0-0.2-0.1-0.2
				s-0.1-0.1-0.1-0.2c0-0.1,0-0.2,0.1-0.2s0.1-0.1,0.3-0.1c0,0,0.1,0,0.1,0s0.1,0,0.1,0l0.3,0c0.2,0,0.3,0.1,0.4,0.1
				c0,0,0.1,0.2,0.1,0.3v0.6h1.2V77c0-0.3,0-0.5,0.1-0.6c0.1-0.1,0.2-0.2,0.4-0.2c0.2,0,0.3,0,0.4,0.1c0.1,0.1,0.1,0.2,0.1,0.4v2.2
				L252.8,78.9L252.8,78.9L252.8,78.9z M249.6,78.1h-4.7l4.7,2.6V78.1z"/>
		</g>
	</g>
	<g id="Laag_3">
		<path fill="none" stroke="#FFFFFF" stroke-width="3.1305" stroke-miterlimit="10" d="M262.1,153.9c0,2.9-2.4,5.3-5.3,5.3H65.5
			c-2.9,0-5.3-2.4-5.3-5.3V65.2c0-2.9,2.4-5.3,5.3-5.3h191.2c2.9,0,5.3,2.4,5.3,5.3V153.9z"/>
		<line fill="none" stroke="#FFFFFF" stroke-width="2.6833" stroke-miterlimit="10" x1="91" y1="60.1" x2="91" y2="159.5"/>
		<line fill="none" stroke="#FFFFFF" stroke-width="2.6833" stroke-miterlimit="10" x1="233.9" y1="60.1" x2="233.9" y2="159.5"/>
		<rect x="55.9" y="96.9" fill="none" width="214" height="35.5"/>
		<text transform="matrix(1 0 0 1 114.6288 124.2462)" fill="#FFFFFF" font-family="'BebasNeue'" font-size="39">KERM.IS</text>
		<line fill="none" stroke="#FFFFFF" stroke-miterlimit="10" x1="100.1" y1="85.1" x2="224.4" y2="85.1"/>
		<line fill="none" stroke="#FFFFFF" stroke-miterlimit="10" x1="100.1" y1="137.1" x2="224.4" y2="137.1"/>
	</g>
</g>
</svg>
